<svg xmlns="http://www.w3.org/2000/svg" viewBox="0 0 24 24" fill="none" stroke="#ffffff" stroke-width="1.5" stroke-linecap="round"><g transform="rotate(180 12 12)"><line x1="12" y1="22" x2="12" y2="14"/><line x1="12" y1="14" x2="7" y2="9"/><line x1="12" y1="14" x2="17" y2="9"/><line x1="7" y1="9" x2="4" y2="5"/><line x1="7" y1="9" x2="9" y2="5"/><line x1="17" y1="9" x2="15" y2="5"/><line x1="17" y1="9" x2="20" y2="5"/><line x1="4" y1="5" x2="2.5" y2="2.5"/><line x1="4" y1="5" x2="5.5" y2="2.5"/><line x1="9" y1="5" x2="8" y2="2.5"/><line x1="9" y1="5" x2="10.5" y2="2.5"/><line x1="15" y1="5" x2="13.5" y2="2.5"/><line x1="15" y1="5" x2="16" y2="2.5"/><line x1="20" y1="5" x2="18.5" y2="2.5"/><line x1="20" y1="5" x2="21.5" y2="2.5"/></g></svg>
